<svg width="74" height="75" viewBox="0 0 74 75" fill="none" xmlns="http://www.w3.org/2000/svg">
<path d="M36.9981 41.0775C36.5973 41.0775 36.1965 40.985 35.8265 40.7691L8.60053 25.0133C7.49053 24.3658 7.12047 22.9474 7.76797 21.8374C8.41547 20.7274 9.80297 20.3573 10.9438 21.0048L36.9981 36.0825L62.8978 21.0974C64.0078 20.4499 65.4262 20.8508 66.0737 21.93C66.7212 23.04 66.3206 24.4582 65.2415 25.1057L38.2006 40.7691C37.7998 40.9541 37.399 41.0775 36.9981 41.0775Z" fill="#2639ED"/>
<path d="M37 69.0127C35.7358 69.0127 34.6875 67.9644 34.6875 66.7002V38.7344C34.6875 37.4702 35.7358 36.4219 37 36.4219C38.2642 36.4219 39.3125 37.4702 39.3125 38.7344V66.7002C39.3125 67.9644 38.2642 69.0127 37 69.0127Z" fill="#2639ED"/>
<path d="M36.9966 70.2158C34.1908 70.2158 31.5083 69.5683 29.4733 68.4275L13.0083 59.3012C8.53743 56.8345 5.02246 50.8833 5.02246 45.765V28.3134C5.02246 23.195 8.53743 17.2752 13.0083 14.7777L29.4733 5.65093C33.6666 3.3076 40.2649 3.3076 44.4891 5.65093L60.9541 14.7777C65.4249 17.2444 68.9399 23.195 68.9399 28.3134V39.5983C68.9399 40.8625 67.8916 41.9108 66.6274 41.9108C65.3633 41.9108 64.3149 40.8625 64.3149 39.5983V28.3134C64.3149 24.9217 61.6941 20.4819 58.7341 18.8477L42.2691 9.72096C39.4633 8.14846 34.5608 8.14846 31.7549 9.72096L15.2899 18.8477C12.2991 20.5127 9.7091 24.9217 9.7091 28.3134V45.765C9.7091 49.1567 12.3299 53.597 15.2899 55.2312L31.7549 64.3575C34.4683 65.8683 39.5866 65.8683 42.2691 64.3575C43.3791 63.7408 44.7974 64.142 45.4141 65.252C46.0308 66.362 45.6299 67.78 44.5199 68.3967C42.4849 69.5683 39.8024 70.2158 36.9966 70.2158Z" fill="#2639ED"/>
<path d="M59.2 68.3652C52.4783 68.3652 47.0208 62.9077 47.0208 56.1861C47.0208 49.4644 52.4783 44.0069 59.2 44.0069C65.9217 44.0069 71.3792 49.4644 71.3792 56.1861C71.3792 62.9077 65.9217 68.3652 59.2 68.3652ZM59.2 48.6319C55.0375 48.6319 51.6458 52.0236 51.6458 56.1861C51.6458 60.3486 55.0375 63.7402 59.2 63.7402C63.3625 63.7402 66.7542 60.3486 66.7542 56.1861C66.7542 52.0236 63.3625 48.6319 59.2 48.6319Z" fill="#2639ED"/>
<path d="M70.9151 70.2152C70.3293 70.2152 69.7435 69.9994 69.281 69.5369L66.1976 66.4536C65.3035 65.5594 65.3035 64.0791 66.1976 63.1849C67.0918 62.2907 68.5718 62.2907 69.466 63.1849L72.5493 66.2682C73.4435 67.1624 73.4435 68.6427 72.5493 69.5369C72.0868 69.9994 71.501 70.2152 70.9151 70.2152Z" fill="#2639ED"/>
</svg>
