<svg width="74" height="75" viewBox="0 0 74 75" fill="none" xmlns="http://www.w3.org/2000/svg">
<path d="M31.1734 56.1803H19.4876C18.2235 56.1803 17.1751 55.1319 17.1751 53.8678V38.0811C17.1751 34.8744 19.7959 32.2533 23.0026 32.2533H31.1734C32.4376 32.2533 33.4859 33.3016 33.4859 34.5658V53.8366C33.4859 55.1316 32.4376 56.1803 31.1734 56.1803ZM21.8001 51.5553H28.8609V36.9094H23.0026C22.3551 36.9094 21.8001 37.4333 21.8001 38.1116V51.5553Z" fill="#00DA71"/>
<path d="M42.8263 56.1803H31.1404C29.8763 56.1803 28.828 55.132 28.828 53.8678V24.0825C28.828 20.8759 31.4488 18.255 34.6554 18.255H39.3421C42.5488 18.255 45.1696 20.8759 45.1696 24.0825V53.8678C45.1388 55.132 44.1213 56.1803 42.8263 56.1803ZM33.4838 51.5553H40.5446V24.0825C40.5446 23.435 40.0204 22.88 39.3421 22.88H34.6554C34.0079 22.88 33.4529 23.4042 33.4529 24.0825V51.5553H33.4838Z" fill="#00DA71"/>
<path d="M54.5152 56.1804H42.8293C41.5652 56.1804 40.5168 55.132 40.5168 53.8679V39.8384C40.5168 38.5742 41.5652 37.5259 42.8293 37.5259H51.0002C54.2068 37.5259 56.8277 40.1467 56.8277 43.3534V53.8679C56.8277 55.132 55.8102 56.1804 54.5152 56.1804ZM45.1418 51.5554H52.2027V43.3534C52.2027 42.7059 51.6785 42.1509 51.0002 42.1509H45.1418V51.5554Z" fill="#00DA71"/>
<path d="M46.25 70.3645H27.75C11.0075 70.3645 3.85416 63.2112 3.85416 46.4687V27.9687C3.85416 11.2262 11.0075 4.07288 27.75 4.07288H46.25C62.9925 4.07288 70.1458 11.2262 70.1458 27.9687V46.4687C70.1458 63.2112 62.9925 70.3645 46.25 70.3645ZM27.75 8.69788C13.5358 8.69788 8.47916 13.7545 8.47916 27.9687V46.4687C8.47916 60.6829 13.5358 65.7395 27.75 65.7395H46.25C60.4642 65.7395 65.5208 60.6829 65.5208 46.4687V27.9687C65.5208 13.7545 60.4642 8.69788 46.25 8.69788H27.75Z" fill="#00DA71"/>
</svg>
