<svg width="74" height="75" viewBox="0 0 74 75" fill="none" xmlns="http://www.w3.org/2000/svg">
<path d="M27.7529 55.1234C27.4137 55.1234 27.0437 55.0309 26.7354 54.8767C24.3612 53.6742 22.3262 51.8859 20.8462 49.6659C19.6129 47.8159 19.6129 45.4417 20.8462 43.5917C22.3262 41.3717 24.3612 39.5834 26.7354 38.4117C27.8762 37.8259 29.2637 38.3192 29.8496 39.46C30.4354 40.6009 29.9729 41.9884 28.8012 42.5742C27.1362 43.4067 25.7179 44.6709 24.7004 46.2125C24.5154 46.49 24.5154 46.86 24.7004 47.1684C25.7179 48.71 27.1362 49.9742 28.8012 50.8067C29.9421 51.3925 30.4046 52.78 29.8496 53.9209C29.4179 54.6609 28.5854 55.1234 27.7529 55.1234Z" fill="#FF007A"/>
<path d="M46.895 55.1234C46.0317 55.1234 45.23 54.6609 44.8292 53.8592C44.2434 52.7184 44.7059 51.3309 45.8775 50.745C47.5425 49.9125 48.9609 48.6484 49.9784 47.1067C50.1634 46.8292 50.1634 46.4592 49.9784 46.1509C48.9609 44.6092 47.5425 43.345 45.8775 42.5125C44.7367 41.9267 44.2742 40.5392 44.8292 39.3984C45.415 38.2575 46.8025 37.795 47.9434 38.35C50.3175 39.5525 52.3525 41.3409 53.8325 43.5609C55.0659 45.4109 55.0659 47.785 53.8325 49.635C52.3525 51.855 50.3175 53.6434 47.9434 54.815C47.5734 55.0309 47.2342 55.1234 46.895 55.1234Z" fill="#FF007A"/>
<path d="M46.25 70.5404H27.75C11.0075 70.5404 3.85416 63.3871 3.85416 46.6446V28.1446C3.85416 11.4021 11.0075 4.24872 27.75 4.24872H46.25C62.9925 4.24872 70.1458 11.4021 70.1458 28.1446V46.6446C70.1458 63.3871 62.9925 70.5404 46.25 70.5404ZM27.75 8.87372C13.5358 8.87372 8.47916 13.9304 8.47916 28.1446V46.6446C8.47916 60.8587 13.5358 65.9154 27.75 65.9154H46.25C60.4642 65.9154 65.5208 60.8587 65.5208 46.6446V28.1446C65.5208 13.9304 60.4642 8.87372 46.25 8.87372H27.75Z" fill="#FF007A"/>
<path d="M6.87728 27.4046C5.61311 27.4046 4.56478 26.3562 4.56478 25.0921C4.56478 23.8279 5.58228 22.7796 6.87728 22.7796L66.139 22.7487C67.4032 22.7487 68.4515 23.7971 68.4515 25.0612C68.4515 26.3254 67.434 27.3737 66.139 27.3737L6.87728 27.4046Z" fill="#FF007A"/>
</svg>
