<svg width="74" height="75" viewBox="0 0 74 75" fill="none" xmlns="http://www.w3.org/2000/svg">
<path d="M54.6983 70.1959H19.3017C11.6242 70.1959 5.39584 63.9676 5.39584 56.2901V35.5393C5.39584 27.8618 11.6242 21.6334 19.3017 21.6334H54.6983C62.3758 21.6334 68.6042 27.8618 68.6042 35.5393V39.9793C68.6042 41.2434 67.5558 42.2918 66.2917 42.2918H60.0633C58.9842 42.2918 57.9975 42.6926 57.2883 43.4326L57.2575 43.4634C56.3942 44.2959 55.9933 45.4368 56.0858 46.6084C56.2708 48.6434 58.2133 50.2776 60.4333 50.2776H66.2917C67.5558 50.2776 68.6042 51.3259 68.6042 52.5901V56.2593C68.6042 63.9676 62.3758 70.1959 54.6983 70.1959ZM19.3017 26.2584C14.1833 26.2584 10.0208 30.421 10.0208 35.5393V56.2901C10.0208 61.4084 14.1833 65.5709 19.3017 65.5709H54.6983C59.8167 65.5709 63.9792 61.4084 63.9792 56.2901V54.9334H60.4333C55.7775 54.9334 51.8308 51.4801 51.4608 47.0401C51.2142 44.5118 52.1392 42.0143 53.9892 40.1951C55.5925 38.5609 57.7508 37.6668 60.0633 37.6668H63.9792V35.5393C63.9792 30.421 59.8167 26.2584 54.6983 26.2584H19.3017Z" fill="#FF9900"/>
<path d="M7.70834 40.6267C6.44418 40.6267 5.39584 39.5783 5.39584 38.3142V24.2235C5.39584 19.6294 8.29418 15.4667 12.58 13.8325L37.0617 4.58253C39.59 3.6267 42.3958 3.96599 44.585 5.50766C46.805 7.04932 48.1 9.54682 48.1 12.2293V23.9459C48.1 25.2101 47.0517 26.2584 45.7875 26.2584C44.5233 26.2584 43.475 25.2101 43.475 23.9459V12.2293C43.475 11.0577 42.92 9.97843 41.9333 9.30009C40.9467 8.62176 39.775 8.46759 38.665 8.89926L14.1833 18.1493C11.6858 19.1051 9.99001 21.541 9.99001 24.2235V38.3142C10.0208 39.6092 8.97251 40.6267 7.70834 40.6267Z" fill="#FF9900"/>
<path d="M60.4349 54.934C55.779 54.934 51.8324 51.4807 51.4624 47.0407C51.2157 44.4815 52.1407 41.984 53.9907 40.1649C55.5632 38.5615 57.7215 37.6674 60.034 37.6674H66.4474C69.4999 37.7599 71.8432 40.1649 71.8432 43.1249V49.4765C71.8432 52.4365 69.4999 54.8415 66.5399 54.934H60.4349ZM66.3857 42.2924H60.0649C58.9857 42.2924 57.999 42.6932 57.2899 43.4332C56.3957 44.2965 55.964 45.4682 56.0874 46.6399C56.2724 48.6749 58.2149 50.309 60.4349 50.309H66.4782C66.879 50.309 67.249 49.939 67.249 49.4765V43.1249C67.249 42.6624 66.879 42.3232 66.3857 42.2924Z" fill="#FF9900"/>
<path d="M43.1667 39.3625H21.5833C20.3192 39.3625 19.2708 38.3142 19.2708 37.05C19.2708 35.7859 20.3192 34.7375 21.5833 34.7375H43.1667C44.4308 34.7375 45.4792 35.7859 45.4792 37.05C45.4792 38.3142 44.4308 39.3625 43.1667 39.3625Z" fill="#FF9900"/>
</svg>
